<svg width="128" height="128" xmlns="http://www.w3.org/2000/svg">

 <g>
  <title>background</title>
  <rect fill="none" id="canvas_background" height="402" width="582" y="-1" x="-1"/>
 </g>
 <g>
  <title>Layer 1</title>
  <circle stroke="null" fill="#4f7faf" id="svg_1" r="63.73019" cy="64" cx="63.73019"/>
  <path fill="#ffffff" id="svg_3" d="m32.5,43l71.5,0c0,-2.2 -1.8,-4 -4,-4l-52.5,0l-1.3,-2.1c-0.7,-1.2 -2,-1.9 -3.4,-1.9l-14.8,0c-2.2,0 -4,1.8 -4,4l0,20l0,25.7l4.6,-38.1c0.2,-2.1 1.9,-3.6 3.9,-3.6z" class="st0"/>
  <path fill="#ffffff" id="svg_4" d="m108.5,47l-72,0c-2,0 -3.7,1.5 -4,3.5l-5,42c-0.3,2.4 1.6,4.5 4,4.5l71.9,0c2,0 3.7,-1.5 4,-3.5l5,-42c0.3,-2.4 -1.5,-4.5 -3.9,-4.5z" class="st0"/>
 </g>
</svg>